<svg width="110" height="75" viewBox="0 0 110 75" fill="none" xmlns="http://www.w3.org/2000/svg">
<g clip-path="url(#clip0_36125_4301)">
<path d="M107.735 11.7354C106.467 7.14712 102.752 3.52944 98.0399 2.29414C89.432 0 55.0002 0 55.0002 0C55.0002 0 20.5684 0 11.9605 2.2059C7.3394 3.4412 3.53379 7.14712 2.26525 11.7354C0 20.1178 0 37.5003 0 37.5003C0 37.5003 0 54.971 2.26525 63.2652C3.53379 67.8535 7.24879 71.4712 11.9605 72.7065C20.6591 75.0006 55.0002 75.0006 55.0002 75.0006C55.0002 75.0006 89.432 75.0006 98.0399 72.7947C102.752 71.5594 106.467 67.9417 107.735 63.3534C110 54.971 110 37.5885 110 37.5885C110 37.5885 110.091 20.1178 107.735 11.7354Z" fill="#3F51B5"/>
<path d="M72.6698 37.5004L44.0371 21.4414V53.5593L72.6698 37.5004Z" fill="white"/>
<rect x="26" y="16" width="55" height="40" fill="#3F51B5"/>
<ellipse cx="40" cy="25.2726" rx="8" ry="6.18182" fill="#F2F2F2"/>
<ellipse cx="68" cy="25.2726" rx="8" ry="6.18182" fill="#F2F2F2"/>
<path d="M34.7037 49.6361C37.799 47.9903 41.3535 46.8644 45.1131 46.3386C48.8728 45.8129 52.745 45.9002 56.4531 46.5945C60.1612 47.2888 63.6138 48.5729 66.5643 50.355C69.5149 52.1371 71.8905 54.3734 73.5215 56.9041L67.9886 58.8085C66.7412 56.8731 64.9244 55.1629 62.6679 53.8C60.4114 52.437 57.771 51.455 54.9351 50.9241C52.0993 50.3931 49.138 50.3263 46.2627 50.7284C43.3874 51.1305 40.6691 51.9915 38.3018 53.2501L34.7037 49.6361Z" fill="#F2F2F2"/>
</g>
<defs>
<clipPath id="clip0_36125_4301">
<rect width="110" height="75" fill="white"/>
</clipPath>
</defs>
</svg>
